<?xml version="1.0" encoding="UTF-8" standalone="no"?>
<svg
   xmlns:dc="http://purl.org/dc/elements/1.1/"
   xmlns:cc="http://creativecommons.org/ns#"
   xmlns:rdf="http://www.w3.org/1999/02/22-rdf-syntax-ns#"
   xmlns:svg="http://www.w3.org/2000/svg"
   xmlns="http://www.w3.org/2000/svg"
   viewBox="0 0 540.40002 89.333336"
   height="89.333336"
   width="540.40002"
   xml:space="preserve"
   id="svg2"
   version="1.1"><metadata
     id="metadata8"><rdf:RDF><cc:Work
         rdf:about=""><dc:format>image/svg+xml</dc:format><dc:type
           rdf:resource="http://purl.org/dc/dcmitype/StillImage" /></cc:Work></rdf:RDF></metadata><defs
     id="defs6" /><g
     transform="matrix(1.3333333,0,0,-1.3333333,0,89.333333)"
     id="g10"><g
       transform="scale(0.1)"
       id="g12"><path
         id="path14"
         style="fill:#ffffff;fill-opacity:1;fill-rule:nonzero;stroke:none"
         d="m 2434.95,479.641 c 12.01,-4.805 22.99,-11.664 28.49,-17.5 6.85,-7.547 9.25,-14.754 9.25,-25.047 0,-9.957 -5.49,-21.281 -11.66,-27.457 -7.2,-7.207 -14.76,-10.641 -25.06,-10.641 -7.2,0 -16.46,3.09 -26.07,7.551 -21.62,9.953 -43.93,17.844 -69.33,17.844 -34.65,0 -50.44,-16.817 -50.44,-35.344 0,-20.942 13.38,-29.172 37.06,-31.234 l 55.94,-5.489 c 70.7,-6.519 106.72,-43.926 106.72,-104.668 0,-78.926 -67.25,-116.679 -151.34,-116.679 -56.28,0 -91.96,10.304 -123.87,31.914 -12.36,8.246 -21.62,19.914 -21.62,34.32 0,12.012 5.48,23.34 14.41,30.547 7.55,6.172 14.41,8.926 23.67,8.926 8.59,0 17.85,-3.442 29.51,-10.305 24.37,-14.402 46.33,-20.93 79.28,-20.93 32.94,0 63.14,11.672 63.14,38.442 0,17.5 -9.6,30.535 -37.75,33.281 l -56.28,5.144 c -64.51,6.18 -105.01,35.008 -105.01,100.899 0,74.121 65.55,113.586 138.64,113.586 36.38,0 64.87,-5.832 92.32,-17.16 z m -367.9,-193.543 h -67.95 c -35.68,0 -52.85,-14.414 -52.85,-41.184 0,-24.707 17.17,-40.496 54.23,-40.496 21.96,0 37.74,2.754 52.85,17.156 10.63,9.961 13.72,22.317 13.72,45.305 z m -120.11,118.047 c -11.67,-6.864 -21.62,-9.266 -29.51,-9.266 -8.93,0 -18.88,3.773 -25.4,12.012 -7.21,8.582 -9.95,16.468 -9.95,26.769 0,19.903 16.81,33.973 33.29,42.555 26.08,13.723 54.22,20.586 90.25,20.586 99.52,0 150.66,-42.551 150.66,-126.289 V 193.098 c 0,-22.996 -1.04,-29.856 -6.53,-40.157 -6.52,-12.351 -21.62,-20.586 -38.43,-20.586 -12.02,0 -21.62,3.77 -28.48,10.293 -6.87,6.18 -10.3,13.036 -13.05,23.68 -26.07,-25.398 -47.69,-35.351 -88.53,-35.351 -40.5,0 -70.7,11.332 -91.29,32.265 -18.87,18.867 -29.51,48.735 -29.51,80.293 0,56.977 39.12,103.645 123.54,103.645 h 83.05 v 17.84 c 0,39.125 -20.59,56.285 -62.8,56.285 -21.27,0 -37.75,-5.492 -57.31,-17.16 z M 1815.82,153.637 c -6.53,-13.047 -20.59,-21.282 -38.78,-21.282 -18.19,0 -32.26,8.235 -38.78,21.282 -4.81,9.605 -5.83,18.179 -5.83,39.801 v 157.863 c 0,48.383 -30.89,64.512 -59.02,64.512 -28.15,0 -59.72,-16.129 -59.72,-64.512 V 193.438 c 0,-21.622 -1.03,-30.196 -5.83,-39.801 -6.52,-13.047 -20.6,-21.282 -38.78,-21.282 -18.19,0 -32.26,8.235 -38.78,21.282 -4.8,9.605 -5.83,18.179 -5.83,39.801 v 372 c 0,21.617 1.03,30.195 5.83,39.804 6.52,13.039 20.59,21.278 38.78,21.278 18.18,0 32.26,-8.239 38.78,-21.278 4.8,-9.609 5.83,-18.187 5.83,-39.804 v -105.7 c 22.65,23.336 48.73,37.063 87.17,37.063 35.69,0 64.51,-11.668 84.42,-31.571 28.82,-28.828 36.37,-62.46 36.37,-101.578 V 193.438 c 0,-21.622 -1.03,-30.196 -5.83,-39.801 z m -477.38,343.164 c 35.69,0 64.52,-11.668 84.42,-31.571 28.83,-28.828 36.38,-62.46 36.38,-101.578 V 193.438 c 0,-21.622 -1.03,-30.196 -5.83,-39.801 -6.53,-13.047 -20.6,-21.282 -38.78,-21.282 -18.2,0 -32.27,8.235 -38.78,21.282 -4.81,9.605 -5.84,18.179 -5.84,39.801 v 157.863 c 0,48.383 -30.88,64.512 -59.02,64.512 -28.14,0 -59.71,-16.129 -59.71,-64.512 V 193.438 c 0,-21.622 -1.03,-30.196 -5.84,-39.801 -6.52,-13.047 -20.59,-21.282 -38.78,-21.282 -18.19,0 -32.25,8.235 -38.77,21.282 -4.81,9.605 -5.84,18.179 -5.84,39.801 v 241.25 c 0,22.992 1.03,29.855 6.52,40.148 6.52,12.359 21.62,20.59 38.44,20.59 12.01,0 21.62,-3.774 28.48,-10.293 7.21,-6.52 10.64,-14.07 13.38,-26.078 22.65,25.047 56.63,37.746 89.57,37.746 z M 1007.61,286.098 h -67.942 c -35.695,0 -52.855,-14.414 -52.855,-41.184 0,-24.707 17.16,-40.496 54.226,-40.496 21.961,0 37.746,2.754 52.844,17.156 10.637,9.961 13.727,22.317 13.727,45.305 z M 887.504,404.145 c -11.672,-6.864 -21.621,-9.266 -29.512,-9.266 -8.922,0 -18.879,3.773 -25.398,12.012 -7.207,8.582 -9.949,16.468 -9.949,26.769 0,19.903 16.816,33.973 33.285,42.555 26.078,13.723 54.222,20.586 90.254,20.586 99.526,0 150.656,-42.551 150.656,-126.289 V 193.098 c 0,-22.996 -1.03,-29.856 -6.52,-40.157 -6.52,-12.351 -21.62,-20.586 -38.44,-20.586 -12.01,0 -21.62,3.77 -28.48,10.293 -6.86,6.18 -10.3,13.036 -13.04,23.68 -26.087,-25.398 -47.7,-35.351 -88.54,-35.351 -40.496,0 -70.695,11.332 -91.285,32.265 -18.871,18.867 -29.512,48.735 -29.512,80.293 0,56.977 39.122,103.645 123.54,103.645 h 83.047 v 17.84 c 0,39.125 -20.587,56.285 -62.797,56.285 -21.274,0 -37.75,-5.492 -57.309,-17.16 z m -163.719,92.656 c 27.793,0 45.641,-5.832 61.77,-16.473 13.383,-8.922 22.652,-21.961 22.652,-37.406 0,-13.035 -5.496,-24.707 -13.387,-32.598 -7.894,-7.894 -18.875,-12.359 -29.855,-12.359 -8.922,0 -18.531,3.094 -30.543,9.269 -10.637,5.493 -21.961,9.266 -33.969,9.266 -29.859,0 -59.371,-20.59 -59.371,-65.895 V 193.438 c 0,-21.622 -1.031,-30.196 -5.836,-39.801 -6.519,-13.047 -20.59,-21.282 -38.777,-21.282 -18.192,0 -32.258,8.235 -38.778,21.282 -4.804,9.605 -5.832,18.179 -5.832,39.801 v 241.25 c 0,22.992 1.028,29.855 6.52,40.148 6.516,12.359 21.621,20.59 38.434,20.59 12.007,0 21.617,-3.774 28.484,-10.293 7.207,-6.52 11.32,-14.07 13.383,-27.11 17.156,20.59 49.761,38.778 85.105,38.778 z M 477.379,153.637 c -6.516,-13.047 -20.59,-21.282 -38.777,-21.282 -18.188,0 -32.258,8.235 -38.774,21.282 -4.805,9.605 -5.836,18.179 -5.836,39.801 v 230.613 c 0,21.621 1.031,30.199 5.836,39.804 6.516,13.04 20.586,21.278 38.774,21.278 18.187,0 32.261,-8.238 38.777,-21.278 4.805,-9.605 5.836,-18.183 5.836,-39.804 V 193.438 c 0,-21.622 -1.031,-30.196 -5.836,-39.801 z m -38.777,491.07 c 28.484,0 51.48,-22.992 51.48,-51.477 0,-28.484 -22.996,-51.476 -51.48,-51.476 -28.481,0 -51.473,22.992 -51.473,51.476 0,28.485 22.992,51.477 51.473,51.477 z M 184.629,404.145 c 43.234,0 70.691,27.453 70.691,67.261 0,40.153 -27.457,67.262 -70.691,67.262 H 96.0859 V 404.145 Z M -0.00390625,196.867 v 368.571 c 0,14.066 0,31.57 13.38670625,44.953 13.3828,13.379 30.8867,13.379 44.9531,13.379 H 190.113 c 101.578,0 161.289,-69.317 161.289,-152.364 0,-83.047 -59.711,-152.371 -161.289,-152.371 H 96.0859 V 196.867 c 0,-22.304 -0.6836,-30.195 -6.5195,-41.863 -7.207,-13.383 -22.6484,-22.649 -41.5234,-22.649 -18.875,0 -34.3164,9.266 -41.52347,22.649 -5.83203,11.668 -6.52343625,19.559 -6.52343625,41.863 z M 3176.67,91.918 c -28.04,12.012 -69.95,24.375 -86.22,52.332 -25.9,44.52 94.98,43.066 43.33,97.598 -29.77,31.425 -82.72,43.75 -124.14,40.683 -61.32,-4.543 -84.96,-51.914 -129.07,-85.027 -32.31,-24.262 -47.34,-1.809 -39.62,33.98 9.61,44.493 4.98,90.215 4.23,135.286 -0.35,21.093 -5.77,94.3 33.75,62.578 29.49,-23.668 56.36,-60.032 96.5,-66.844 24.67,-4.191 49.56,-2.063 74.15,2.914 -19.62,17 -37.67,38.969 -53.54,65.828 l -2.65,4.504 c -9.67,0.902 -19.17,2.418 -28.3,4.824 -46.84,12.336 -77.44,51.137 -107.98,85.926 -17.74,20.207 -41.61,57.816 -73.59,50.348 -38.79,-9.067 -22.81,-59.485 -14.71,-85.309 27.95,-89.16 38.39,-185.766 31.49,-278.922 -2.22,-29.961 -11.76,-58.211 -20.54,-86.707 -6.48,-21.035 -16.36,-51.8241 7.35,-66.0077 50.78,-30.3398 96.17,63.4177 116.1,95.0777 13.79,21.915 27.64,48.645 49.91,63.118 16.68,10.832 76.91,37.414 87.07,5.566 8.62,-27.004 -61.4,-42.5 -39.18,-83.652 15.99,-29.578 54.27,-37.879 83.46,-48.9768 33.04,-12.5586 71.21,-37.7422 110.25,-58.4766 2.55,17.0742 7.46,32.7461 14.67,46.6133 -11.13,3.8789 -22.11,8.1914 -32.72,12.7461 z m 499.36,11.297 c -10.34,-4.5236 -20.75,-8.9533 -31.32,-13.0744 -43.75,-17.082 -91.5,-30.7929 -138.95,-27.1406 -44.07,3.3906 -83.25,37.617 -127.3,33.9258 -26.35,-2.207 -48.21,-18.2422 -73.01,-25.5078 -27.33,-8.0078 -54.96,-4.7071 -81.64,3.0351 l -0.72,-1.3242 c -7.04,-13.2656 -11.74,-28.4961 -13.98,-45.2578 l -0.33,-2.5273 c 34.08,-16.86724 68.44,-28.82818 100.33,-24.421925 4.88,0.671875 9.98,1.824215 15.37,3.531255 31.4,9.92577 56.8,25.51167 90.67,23.18747 42.24,-2.9023 81.49,-17.6367 124.29,-15.6172 52.48,2.4688 103.99,16.6914 152.33,36.7696 15.75,6.5312 31.06,13.9726 46.18,21.7851 -19.63,9.2305 -38.88,19.1992 -57.18,29.8709 z m 370.03,239.125 c -1.19,1.426 -2.85,2.719 -4.59,3.988 l -1.49,-1.18 c -95.78,-75.593 -168.37,-94.277 -212.91,-96.472 12.61,-28.586 72.95,5.191 87.3,13.609 11.61,6.801 43.22,23.203 31.86,-4.59 -5.6,-13.687 -37.43,-30.886 -49.31,-38.574 -38.01,-24.59 -79.43,-43.914 -119.13,-65.605 -27.77,-15.164 -55.96,-29.508 -84.77,-42.684 18.15,-10.398 37.05,-20.2656 56.43,-29.1992 l 4.96,-2.2851 c 47.03,25.6173 92.04,55.2343 138.49,81.6293 56.26,31.972 116.92,65.746 148.76,124.765 8.74,16.192 18.17,40.145 4.4,56.598 z M 3707.8,583.82 c 49.88,-13.226 95.25,-39.945 138.89,-66.879 30.33,-18.726 87.57,-36.273 82.45,-81.921 -2.15,-19.165 -16.43,-33.653 -28.57,-47.45 -21.84,-24.812 -42.33,-52.621 -57.96,-81.75 -6.24,-11.636 -16.31,-27.847 -17.7,-42.254 42.18,1.758 112.06,19.395 205.77,93.36 l 0.88,0.691 c -0.14,0.457 -0.37,0.86 -0.49,1.336 -1.31,5.164 -1.47,11.016 -3.27,15.895 -4.13,11.265 -11.87,20.933 -21.8,27.664 -3.22,2.187 -6.68,4.051 -10.36,5.351 -0.86,0.297 -9.77,2.094 -9.56,1.465 1,-2.848 1.26,-5.39 2.54,-8.058 8.29,-17.262 11.07,-37.086 5.63,-55.641 -1.24,-4.262 -3.41,-8.899 -6.5,-12.176 1.29,1.418 -5.84,11.832 -6.75,13.317 -6.17,10.058 -14.21,19.925 -25.18,24.925 -2.4,1.094 -6.5,1.696 -9.04,1.301 -0.3,-1.312 0.15,-2.398 0.48,-3.687 3.93,-15.528 7.22,-40.582 -4.79,-53.653 -0.16,-0.168 -5.19,7.903 -5.68,8.633 -5.33,8.199 -15.24,13.059 -25,12.539 -0.14,-0.004 1.99,-12.113 2.2,-13.332 1.88,-10.359 2.82,-22.644 -4.64,-31.172 -4.11,-4.695 -11.36,-7.793 -17.16,-9.558 -5.37,-1.629 -15.19,-4.043 -20.09,-0.071 -2.83,2.309 -3.74,7.739 -3.32,11.184 1.13,9.148 5.11,19.121 9.1,27.383 4.59,9.508 9.39,18.941 15.39,27.652 7.6,11.024 17.08,20.332 26.99,29.258 5.54,4.98 11.1,9.933 16.27,15.305 16.92,17.625 38.67,39.269 37.55,65.75 -2.31,53.972 -72.13,90.707 -111.9,114.949 -67.98,41.426 -141.15,79.219 -220.58,74.726 l -0.56,-2.234 c -4.28,-17.484 -8.12,-35.691 -11.74,-55.492 26.3,2.383 52.16,-0.371 78.5,-7.356 z m -644.46,-210.668 4.32,-3.527 c 19.92,5.039 39.56,11.344 58.6,17.266 49.72,15.464 103.78,33.902 140.51,72.734 11.66,12.316 20.49,33.617 14.36,50.895 -8.98,25.308 -28.27,47.558 2.6,65.308 34.76,19.981 81.12,39.082 122.19,33.102 35.9,-5.231 61.63,-37.352 98.25,-39.953 35.09,-2.497 67.78,11.679 101.49,18.773 2.69,0.566 5.34,0.891 8.01,1.324 l 0.47,2.633 c 3.59,19.922 7.44,38.184 11.69,55.781 -7.51,-0.929 -15.05,-2.086 -22.68,-3.867 -32.59,-7.617 -64.25,-18.668 -98.47,-17.668 -31.66,0.93 -52.78,26.008 -80.99,36.203 -59.4,21.461 -118.86,-5.441 -172.13,-30.445 -32.08,-15.055 -87.99,-39.535 -86.64,-82.625 0.53,-16.734 20.6,-23.664 26.41,-37.238 18.46,-43.196 -77.22,-64.86 -101.85,-69.528 -24.59,-4.664 -51.58,-7.898 -78.01,-7.371 15.53,-25.429 32.92,-46.308 51.87,-61.797 z m 713.57,59.805 c -14.89,0 -27.02,-12.125 -27.02,-27.023 0,-14.903 12.13,-27.02 27.02,-27.02 14.9,0 27.02,12.117 27.02,27.02 0,14.898 -12.12,27.023 -27.02,27.023 z m -8.56,-96.172 c -33.75,0 -61.21,27.461 -61.21,61.215 0,33.754 27.46,61.215 61.21,61.215 33.75,0 61.21,-27.461 61.21,-61.215 0,-33.754 -27.46,-61.215 -61.21,-61.215 z m -14.16,154.379 c -53.3,0 -96.66,-43.359 -96.66,-96.656 0,-53.293 43.36,-96.656 96.66,-96.656 53.29,0 96.65,43.363 96.65,96.656 0,53.297 -43.36,96.656 -96.65,96.656" /></g></g></svg>