<?xml version="1.0" encoding="UTF-8"?>
<svg width="406px" height="67px" viewBox="0 0 406 67" version="1.1" xmlns="http://www.w3.org/2000/svg" xmlns:xlink="http://www.w3.org/1999/xlink">
    <!-- Generator: Sketch 50.2 (55047) - http://www.bohemiancoding.com/sketch -->
    <title>Piranhas Logo Inline Color RGB</title>
    <desc>Created with Sketch.</desc>
    <defs>
        <polygon id="path-1" points="0.857804442 0.003 130.302741 0.003 130.302741 66.94 0.857804442 66.94"></polygon>
        <polygon id="path-3" points="0.06 0.623 385.084 0.623 385.084 49.764 0.06 49.764"></polygon>
    </defs>
    <g id="Piranhas-Logo-Inline-Color-RGB" stroke="none" stroke-width="1" fill="none" fill-rule="evenodd">
        <g id="Group-7" transform="translate(275.000000, 0.000000)">
            <mask id="mask-2" fill="white">
                <use xlink:href="#path-1"></use>
            </mask>
            <g id="Clip-2"></g>
            <path d="M128.107,31.105 C127.976,30.588 127.96,30.003 127.78,29.515 C127.367,28.388 126.593,27.421 125.6,26.749 C125.278,26.53 124.932,26.343 124.564,26.213 C124.345,26.137 124.08,26.096 123.848,26.084 C123.67,26.075 123.643,26.063 123.663,26.241 C123.685,26.445 123.773,26.688 123.862,26.873 C124.691,28.599 124.97,30.582 124.425,32.437 C124.355,32.674 124.264,32.905 124.147,33.123 C124.126,33.164 123.816,33.611 123.808,33.598 C123.674,33.361 123.585,33.094 123.439,32.856 C123.33,32.676 123.211,32.502 123.1,32.322 C122.483,31.317 121.679,30.33 120.582,29.83 C120.342,29.721 119.932,29.661 119.678,29.7 C119.648,29.831 119.693,29.94 119.726,30.069 C120.118,31.622 120.448,34.127 119.247,35.434 C119.231,35.451 118.728,34.644 118.679,34.571 C118.236,33.889 117.272,33.236 116.419,33.315 C116.27,33.329 116.269,33.314 116.241,33.47 C116.217,33.605 116.25,33.766 116.266,33.9 C116.299,34.152 116.354,34.4 116.399,34.65 C116.586,35.686 116.681,36.915 115.935,37.766 C115.524,38.237 114.799,38.546 114.219,38.723 C113.682,38.886 112.7,39.128 112.21,38.729 C111.927,38.5 111.836,37.957 111.878,37.612 C111.991,36.696 112.389,35.699 112.788,34.874 C113.247,33.923 113.727,32.98 114.327,32.108 C115.087,31.006 116.035,30.075 117.026,29.183 C117.58,28.685 118.137,28.189 118.652,27.651 C120.345,25.89 122.52,23.725 122.408,21.077 C122.178,15.68 115.195,12.006 111.218,9.582 C104.196,5.303 96.624,1.398 88.376,2.154 C87.868,4.23 87.472,6.187 87.152,7.962 C90.052,7.586 92.887,7.851 95.78,8.618 C100.768,9.94 105.305,12.612 109.669,15.306 C112.702,17.178 118.426,18.933 117.914,23.498 C117.699,25.414 116.271,26.863 115.056,28.243 C112.873,30.724 110.824,33.504 109.262,36.418 C108.562,37.722 107.372,39.604 107.474,41.159 C107.48,41.242 107.492,41.316 107.503,41.393 C111.937,41.213 119.066,39.368 128.533,31.896 C128.429,31.8 128.342,31.699 128.285,31.59 C128.207,31.44 128.151,31.276 128.107,31.105" id="Fill-1" fill="#1B4A61" mask="url(#mask-2)"></path>
            <path d="M30.86,30.265 C33.163,29.736 35.433,28.992 37.626,28.311 C42.598,26.764 48.004,24.921 51.678,21.037 C52.843,19.806 53.726,17.675 53.113,15.947 C52.215,13.417 50.286,11.192 53.373,9.417 C56.849,7.419 61.485,5.509 65.592,6.107 C69.181,6.629 71.755,9.841 75.417,10.102 C78.926,10.352 82.195,8.934 85.566,8.224 C86.098,8.113 86.626,8.03 87.152,7.962 C87.472,6.187 87.868,4.23 88.376,2.154 C87.365,2.247 86.346,2.397 85.315,2.638 C82.056,3.399 78.89,4.504 75.468,4.404 C72.302,4.312 70.19,1.804 67.369,0.784 C61.429,-1.362 55.483,1.328 50.156,3.829 C46.948,5.334 41.357,7.782 41.492,12.091 C41.545,13.765 43.552,14.458 44.133,15.815 C45.979,20.134 36.411,22.301 33.948,22.768 C31.211,23.286 28.173,23.656 25.251,23.493 C26.76,26.047 28.613,28.429 30.86,30.265" id="Fill-3" fill="#EEC95F" mask="url(#mask-2)"></path>
            <path d="M42.667,57.808 C39.863,56.607 35.672,55.371 34.045,52.575 C31.455,48.123 43.543,48.268 38.378,42.814 C35.401,39.671 30.106,38.439 25.964,38.747 C19.832,39.201 17.468,43.938 13.057,47.25 C9.826,49.675 8.323,47.429 9.095,43.851 C10.056,39.401 9.593,34.83 9.518,30.322 C9.483,28.213 8.941,20.893 12.893,24.065 C15.842,26.432 18.529,30.068 22.543,30.75 C25.311,31.22 28.109,30.896 30.86,30.265 C28.613,28.429 26.76,26.047 25.251,23.493 C23.969,23.422 22.708,23.258 21.509,22.942 C16.825,21.709 13.764,17.829 10.711,14.35 C8.937,12.329 6.55,8.568 3.352,9.315 C-0.527,10.222 1.071,15.263 1.881,17.846 C4.676,26.762 5.72,36.422 5.03,45.738 C4.808,48.733 3.854,51.559 2.976,54.409 C2.327,56.512 1.34,59.591 3.711,61.009 C8.789,64.044 13.328,54.667 15.321,51.502 C16.7,49.31 18.085,46.637 20.312,45.19 C21.98,44.107 28.003,41.449 29.019,44.633 C29.881,47.334 22.879,48.883 25.101,52.999 C26.701,55.957 30.528,56.787 33.447,57.896 C36.948,59.226 41.022,61.981 45.168,64.114 C45.425,62.19 45.965,60.622 46.648,59.336 C45.287,58.898 43.954,58.36 42.667,57.808" id="Fill-4" fill="#54BBBD" mask="url(#mask-2)"></path>
            <path d="M129.166,38.425 C130.04,36.805 130.983,34.411 129.606,32.766 C129.341,32.448 128.855,32.195 128.533,31.896 C119.066,39.368 111.937,41.213 107.503,41.393 C108.036,45.517 114.894,41.675 116.437,40.771 C117.598,40.091 120.759,38.451 119.623,41.23 C119.063,42.599 115.88,44.319 114.692,45.088 C110.891,47.546 106.749,49.479 102.779,51.647 C99.73,53.313 96.635,54.887 93.456,56.306 C95.286,57.374 97.344,58.463 99.632,59.517 C104.632,56.862 109.377,53.694 114.29,50.902 C119.916,47.705 125.982,44.328 129.166,38.425" id="Fill-5" fill="#006792" mask="url(#mask-2)"></path>
            <path d="M89.471,57.986 C85.096,59.694 80.321,61.064 75.576,60.7 C71.169,60.361 67.251,56.938 62.846,57.307 C60.211,57.528 58.025,59.131 55.545,59.858 C52.561,60.732 49.541,60.264 46.648,59.336 C45.965,60.622 45.425,62.19 45.168,64.114 C48.807,65.986 52.501,67.379 55.911,66.908 C56.398,66.84 56.909,66.725 57.448,66.554 C60.588,65.562 63.128,64.004 66.515,64.236 C70.739,64.526 74.664,66 78.944,65.797 C84.192,65.55 89.343,64.129 94.177,62.121 C96.041,61.346 97.852,60.463 99.632,59.517 C97.344,58.463 95.286,57.374 93.456,56.306 C92.142,56.893 90.818,57.461 89.471,57.986" id="Fill-6" fill="#009DD1" mask="url(#mask-2)"></path>
        </g>
        <path d="M377.691,23.704 C376.202,23.704 374.989,24.916 374.989,26.406 C374.989,27.897 376.202,29.108 377.691,29.108 C379.181,29.108 380.393,27.897 380.393,26.406 C380.393,24.916 379.181,23.704 377.691,23.704" id="Fill-8" fill="#1B4A61"></path>
        <g id="Group-12" transform="translate(0.000000, 4.000000)">
            <mask id="mask-4" fill="white">
                <use xlink:href="#path-3"></use>
            </mask>
            <g id="Clip-10"></g>
            <path d="M376.835,29.321 C373.46,29.321 370.714,26.575 370.714,23.2 C370.714,19.824 373.46,17.078 376.835,17.078 C380.21,17.078 382.956,19.824 382.956,23.2 C382.956,26.575 380.21,29.321 376.835,29.321 Z M375.419,13.883 C370.089,13.883 365.753,18.219 365.753,23.549 C365.753,28.878 370.089,33.214 375.419,33.214 C380.748,33.214 385.084,28.878 385.084,23.549 C385.084,18.219 380.748,13.883 375.419,13.883 Z" id="Fill-9" fill="#1B4A61" mask="url(#mask-4)"></path>
            <path d="M18.463,22.586 C22.786,22.586 25.532,19.84 25.532,15.859 C25.532,11.844 22.786,9.132 18.463,9.132 L9.609,9.132 L9.609,22.586 L18.463,22.586 Z M0,43.313 L0,6.456 C0,5.049 0,3.299 1.338,1.961 C2.677,0.623 4.428,0.623 5.834,0.623 L19.012,0.623 C29.17,0.623 35.14,7.554 35.14,15.859 C35.14,24.164 29.17,31.096 19.012,31.096 L9.609,31.096 L9.609,43.313 C9.609,45.544 9.54,46.333 8.957,47.5 C8.236,48.838 6.692,49.764 4.804,49.764 C2.917,49.764 1.373,48.838 0.653,47.5 C0.069,46.333 0,45.544 0,43.313 Z" id="Fill-11" fill="#0073AB" mask="url(#mask-4)"></path>
        </g>
        <path d="M47.738,51.636 C47.086,52.941 45.679,53.764 43.861,53.764 C42.041,53.764 40.635,52.941 39.983,51.636 C39.503,50.675 39.399,49.818 39.399,47.656 L39.399,24.595 C39.399,22.433 39.503,21.574 39.983,20.614 C40.635,19.31 42.041,18.486 43.861,18.486 C45.679,18.486 47.086,19.31 47.738,20.614 C48.219,21.574 48.322,22.433 48.322,24.595 L48.322,47.656 C48.322,49.818 48.219,50.675 47.738,51.636 Z M43.861,2.528 C46.709,2.528 49.008,4.828 49.008,7.677 C49.008,10.525 46.709,12.824 43.861,12.824 C41.012,12.824 38.713,10.525 38.713,7.677 C38.713,4.828 41.012,2.528 43.861,2.528 Z" id="Fill-13" fill="#0073AB"></path>
        <path d="M72.379,17.32 C75.158,17.32 76.943,17.903 78.556,18.966 C79.894,19.859 80.821,21.163 80.821,22.708 C80.821,24.011 80.271,25.178 79.482,25.967 C78.693,26.757 77.595,27.203 76.496,27.203 C75.604,27.203 74.644,26.894 73.442,26.276 C72.379,25.727 71.246,25.349 70.045,25.349 C67.06,25.349 64.108,27.409 64.108,31.939 L64.108,47.656 C64.108,49.818 64.005,50.675 63.525,51.636 C62.873,52.941 61.466,53.764 59.647,53.764 C57.828,53.764 56.421,52.941 55.77,51.636 C55.289,50.675 55.186,49.818 55.186,47.656 L55.186,23.531 C55.186,21.232 55.289,20.545 55.838,19.516 C56.49,18.28 58,17.457 59.682,17.457 C60.882,17.457 61.844,17.835 62.53,18.486 C63.25,19.138 63.662,19.894 63.868,21.197 C65.584,19.138 68.844,17.32 72.379,17.32" id="Fill-14" fill="#0073AB"></path>
        <path d="M100.761,38.39 L93.967,38.39 C90.398,38.39 88.682,39.832 88.682,42.508 C88.682,44.979 90.398,46.558 94.104,46.558 C96.3,46.558 97.879,46.283 99.388,44.842 C100.453,43.846 100.761,42.611 100.761,40.312 L100.761,38.39 Z M88.75,26.586 C87.583,27.272 86.588,27.512 85.799,27.512 C84.907,27.512 83.911,27.134 83.26,26.311 C82.539,25.453 82.265,24.664 82.265,23.634 C82.265,21.644 83.946,20.236 85.593,19.379 C88.201,18.006 91.015,17.32 94.619,17.32 C104.571,17.32 109.684,21.574 109.684,29.949 L109.684,47.69 C109.684,49.99 109.581,50.675 109.032,51.706 C108.38,52.941 106.87,53.764 105.188,53.764 C103.987,53.764 103.027,53.387 102.34,52.735 C101.654,52.117 101.311,51.431 101.036,50.367 C98.428,52.907 96.266,53.902 92.182,53.902 C88.133,53.902 85.113,52.769 83.053,50.675 C81.166,48.789 80.103,45.802 80.103,42.646 C80.103,36.949 84.015,32.282 92.457,32.282 L100.761,32.282 L100.761,30.498 C100.761,26.586 98.703,24.869 94.482,24.869 C92.354,24.869 90.707,25.419 88.75,26.586 Z" id="Fill-15" fill="#0073AB"></path>
        <path d="M133.844,17.32 C137.413,17.32 140.296,18.486 142.286,20.477 C145.169,23.359 145.924,26.723 145.924,30.634 L145.924,47.656 C145.924,49.818 145.821,50.675 145.341,51.636 C144.688,52.941 143.282,53.764 141.463,53.764 C139.644,53.764 138.236,52.941 137.585,51.636 C137.104,50.675 137.001,49.818 137.001,47.656 L137.001,31.87 C137.001,27.031 133.913,25.419 131.099,25.419 C128.285,25.419 125.128,27.031 125.128,31.87 L125.128,47.656 C125.128,49.818 125.025,50.675 124.545,51.636 C123.892,52.941 122.486,53.764 120.666,53.764 C118.848,53.764 117.441,52.941 116.789,51.636 C116.308,50.675 116.206,49.818 116.206,47.656 L116.206,23.531 C116.206,21.232 116.308,20.545 116.857,19.516 C117.509,18.28 119.02,17.457 120.701,17.457 C121.902,17.457 122.863,17.835 123.549,18.486 C124.27,19.138 124.613,19.894 124.887,21.094 C127.153,18.589 130.55,17.32 133.844,17.32" id="Fill-16" fill="#0073AB"></path>
        <path d="M181.582,51.636 C180.929,52.941 179.524,53.764 177.704,53.764 C175.886,53.764 174.478,52.941 173.826,51.636 C173.345,50.675 173.243,49.818 173.243,47.656 L173.243,31.87 C173.243,27.031 170.154,25.419 167.341,25.419 C164.527,25.419 161.369,27.031 161.369,31.87 L161.369,47.656 C161.369,49.818 161.266,50.675 160.786,51.636 C160.134,52.941 158.727,53.764 156.908,53.764 C155.089,53.764 153.682,52.941 153.03,51.636 C152.55,50.675 152.448,49.818 152.448,47.656 L152.448,10.456 C152.448,8.294 152.55,7.437 153.03,6.476 C153.682,5.171 155.089,4.348 156.908,4.348 C158.727,4.348 160.134,5.171 160.786,6.476 C161.266,7.437 161.369,8.294 161.369,10.456 L161.369,21.026 C163.634,18.692 166.242,17.32 170.086,17.32 C173.655,17.32 176.537,18.486 178.528,20.477 C181.41,23.359 182.165,26.723 182.165,30.634 L182.165,47.656 C182.165,49.818 182.062,50.675 181.582,51.636" id="Fill-17" fill="#0073AB"></path>
        <path d="M206.705,38.39 L199.91,38.39 C196.342,38.39 194.625,39.832 194.625,42.508 C194.625,44.979 196.342,46.558 200.048,46.558 C202.244,46.558 203.823,46.283 205.333,44.842 C206.396,43.846 206.705,42.611 206.705,40.312 L206.705,38.39 Z M194.695,26.586 C193.528,27.272 192.532,27.512 191.743,27.512 C190.85,27.512 189.856,27.134 189.203,26.311 C188.482,25.453 188.208,24.664 188.208,23.634 C188.208,21.644 189.89,20.236 191.537,19.379 C194.145,18.006 196.959,17.32 200.562,17.32 C210.514,17.32 215.628,21.574 215.628,29.949 L215.628,47.69 C215.628,49.99 215.524,50.675 214.975,51.706 C214.323,52.941 212.813,53.764 211.132,53.764 C209.93,53.764 208.97,53.387 208.284,52.735 C207.597,52.117 207.254,51.431 206.979,50.367 C204.372,52.907 202.21,53.902 198.126,53.902 C194.076,53.902 191.057,52.769 188.997,50.675 C187.111,48.789 186.046,45.802 186.046,42.646 C186.046,36.949 189.958,32.282 198.4,32.282 L206.705,32.282 L206.705,30.498 C206.705,26.586 204.646,24.869 200.425,24.869 C198.298,24.869 196.65,25.419 194.695,26.586 Z" id="Fill-18" fill="#0073AB"></path>
        <path d="M243.495,19.036 C244.696,19.516 245.794,20.202 246.344,20.786 C247.029,21.541 247.269,22.261 247.269,23.291 C247.269,24.286 246.72,25.419 246.103,26.036 C245.383,26.757 244.627,27.1 243.597,27.1 C242.877,27.1 241.951,26.791 240.99,26.345 C238.828,25.349 236.597,24.561 234.057,24.561 C230.592,24.561 229.013,26.242 229.013,28.095 C229.013,30.189 230.351,31.012 232.72,31.218 L238.313,31.767 C245.383,32.42 248.985,36.16 248.985,42.234 C248.985,50.127 242.26,53.902 233.851,53.902 C228.223,53.902 224.655,52.872 221.464,50.711 C220.228,49.886 219.302,48.719 219.302,47.279 C219.302,46.078 219.85,44.945 220.743,44.224 C221.498,43.607 222.184,43.332 223.11,43.332 C223.969,43.332 224.895,43.675 226.061,44.362 C228.498,45.802 230.694,46.455 233.989,46.455 C237.283,46.455 240.303,45.288 240.303,42.611 C240.303,40.861 239.343,39.557 236.528,39.283 L230.9,38.768 C224.449,38.15 220.399,35.267 220.399,28.678 C220.399,21.266 226.954,17.32 234.263,17.32 C237.901,17.32 240.75,17.903 243.495,19.036" id="Fill-19" fill="#0073AB"></path>
    </g>
</svg>